<svg version="1" xmlns="http://www.w3.org/2000/svg" width="682.667" height="682.667" viewBox="0 0 512.000000 512.000000"><path d="M148.7 1.5c-13 4.9-21.1 17.1-21 31.4.1 6.2.5 7.4 14.1 34.7 7.7 15.5 13.8 28.5 13.5 28.8-.4.3-1.6.6-2.8.6-3.9 0-12.4 5.1-16.9 10.1-8.3 9.2-10.3 22.2-5.1 33.7 5 11.2 14.7 17.9 27.6 19.1l6.9.6-8.2 6.5c-24.5 19.5-51.5 51.8-72 86C43 322.6 22.5 404.5 35.6 449.6c10.9 37.6 38.1 54.2 99.4 60.6 18.1 1.9 222.9 1.9 241.5 0 41.7-4.2 64.7-12.5 81.6-29.3 11.8-11.7 18.4-26.7 21-47.9 4.7-38.6-10.1-98.2-38-153.5-23.8-46.9-54.4-86.7-87.3-113.1l-7.6-6.1 6.6-.5c8.8-.7 15.8-3.8 21.5-9.6 11.1-11.3 12.5-27 3.7-40.4-3.5-5.2-10.4-10.3-16.5-12-2.2-.6-4.4-1.4-4.8-1.8-.4-.4 5.3-13 12.8-28.1 15.2-30.7 16-33.4 13.1-44.2-3-11-11.8-20.1-22.1-22.8-2.1-.6-7.1-.9-11-.7-12.1.6-21 6.7-27.4 18.9l-3.3 6.1-2.4-5.8c-2.9-7.4-11.1-15.4-18-17.8C281.3-4.2 263 4.8 257.2 22l-1.8 5.2-1.2-4.9c-2.5-9.5-11.9-18.8-21.7-21.4-6.3-1.7-17.2-.7-22.9 2.1-6.4 3.3-13 10.8-15.2 17.2l-1.6 5.1-3.1-5.6c-4.2-8-8.7-12.8-14.8-16.2-4.6-2.4-6.7-2.9-13.9-3.2-5.7-.2-9.8.2-12.3 1.2zM278.9 194c6.6 3.3 8.1 7 8.1 19.4V224h26c24 0 26.4.2 29.9 2 10.9 5.5 10.9 21.1.1 27.4-3.2 2-5.4 2.1-29.7 2.4l-26.3.3V320h11.3c21.8 0 36.4 6.8 45.7 21.2 6.5 10 7.2 14.5 6.8 45.3l-.3 27-3.6 7.5c-8.4 17.6-22.6 25.6-47.1 26.7l-12.8.6v10.2c0 8.9-.3 10.6-2.3 13.5-6.3 9.4-19.4 9.8-25.9.8-2-2.9-2.3-4.7-2.6-14l-.4-10.7-26.1-.3c-22.6-.3-26.6-.5-29.4-2-7.6-4.2-10.7-15.1-6.1-21.7 5.2-7.6 4.8-7.6 34.9-7.9l26.9-.3V352h-7.4c-13.5 0-22.4-1.7-31.2-6-12.9-6.3-21.4-17-24.3-30.8-1.7-8.4-1.4-49.5.4-56.7 3.3-12.4 11.1-22.3 22.1-28.2 8.4-4.5 16.9-6.3 29.7-6.3H256v-10c0-10.7.9-13.7 5.2-17.7 4.9-4.6 11.6-5.5 17.7-2.3z"/><path d="M231 257.8c-6.5 3.3-7.5 6.4-7.8 26.3-.4 20.6.6 27.3 4.6 31.2 4 3.9 7.3 4.7 18.3 4.7h9.9v-64h-10.7c-8.3 0-11.6.4-14.3 1.8zM287 384v32h10c11.6 0 16.9-1.6 20.3-6.4 2.1-2.9 2.2-4.2 2.5-24.6.3-24.2-.2-26.4-6.7-30.7-3-2.1-4.6-2.3-14.7-2.3H287v32z"/></svg>