<?xml version="1.0" standalone="no"?>
<!DOCTYPE svg PUBLIC "-//W3C//DTD SVG 20010904//EN"
 "http://www.w3.org/TR/2001/REC-SVG-20010904/DTD/svg10.dtd">
<svg version="1.0" xmlns="http://www.w3.org/2000/svg"
 width="512.000000pt" height="512.000000pt" viewBox="0 0 512.000000 512.000000"
 preserveAspectRatio="xMidYMid meet">
<metadata>
Created by potrace 1.13, written by Peter Selinger 2001-2015
</metadata>
<g transform="translate(0.000000,512.000000) scale(0.100000,-0.100000)"
fill="#000000" stroke="none">
<path d="M1487 5105 c-130 -49 -211 -171 -210 -314 1 -62 5 -74 141 -347 77
-155 138 -285 135 -288 -4 -3 -16 -6 -28 -6 -39 0 -124 -51 -169 -101 -83 -92
-103 -222 -51 -337 50 -112 147 -179 276 -191 l69 -6 -82 -65 c-245 -195 -515
-518 -720 -860 -418 -696 -623 -1515 -492 -1966 109 -376 381 -542 994 -606
181 -19 2229 -19 2415 0 417 42 647 125 816 293 118 117 184 267 210 479 47
386 -101 982 -380 1535 -238 469 -544 867 -873 1131 l-76 61 66 5 c88 7 158
38 215 96 111 113 125 270 37 404 -35 52 -104 103 -165 120 -22 6 -44 14 -48
18 -4 4 53 130 128 281 152 307 160 334 131 442 -30 110 -118 201 -221 228
-21 6 -71 9 -110 7 -121 -6 -210 -67 -274 -189 l-33 -61 -24 58 c-29 74 -111
154 -180 178 -171 58 -354 -32 -412 -204 l-18 -52 -12 49 c-25 95 -119 188
-217 214 -63 17 -172 7 -229 -21 -64 -33 -130 -108 -152 -172 l-16 -51 -31 56
c-42 80 -87 128 -148 162 -46 24 -67 29 -139 32 -57 2 -98 -2 -123 -12z m1302
-1925 c66 -33 81 -70 81 -194 l0 -106 260 0 c240 0 264 -2 299 -20 109 -55
109 -211 1 -274 -32 -20 -54 -21 -297 -24 l-263 -3 0 -320 0 -319 113 0 c218
0 364 -68 457 -212 65 -100 72 -145 68 -453 l-3 -270 -36 -75 c-84 -176 -226
-256 -471 -267 l-128 -6 0 -102 c0 -89 -3 -106 -23 -135 -63 -94 -194 -98
-259 -8 -20 29 -23 47 -26 140 l-4 107 -261 3 c-226 3 -266 5 -294 20 -76 42
-107 151 -61 217 52 76 48 76 349 79 l269 3 0 319 0 320 -74 0 c-135 0 -224
17 -312 60 -129 63 -214 170 -243 308 -17 84 -14 495 4 567 33 124 111 223
221 282 84 45 169 63 297 63 l107 0 0 100 c0 107 9 137 52 177 49 46 116 55
177 23z"/>
<path d="M2310 2542 c-65 -33 -75 -64 -78 -263 -4 -206 6 -273 46 -312 40 -39
73 -47 183 -47 l99 0 0 320 0 320 -107 0 c-83 0 -116 -4 -143 -18z"/>
<path d="M2870 1280 l0 -320 100 0 c116 0 169 16 203 64 21 29 22 42 25 246 3
242 -2 264 -67 307 -30 21 -46 23 -147 23 l-114 0 0 -320z"/>
</g>
</svg>
