<svg version="1" xmlns="http://www.w3.org/2000/svg" width="1600" height="1600" viewBox="0 0 1200.000000 1200.000000"><path d="M566 2.1c-83.5 5-163 26.4-236 63.5C152.5 155.8 30.5 328.4 6.1 523.9c-3.7 29.4-4.5 42.5-4.5 75.6 0 34.8.9 49.3 5 80.5 30.3 226.9 190.2 418.6 408.4 489.5 43 13.9 85.2 22.5 133.5 27.2 24.9 2.3 78.1 2.3 103 0 70.4-6.8 131-22.5 193.5-50.4 95.3-42.4 181.8-113.6 243.4-200.3 55.9-78.6 92.3-170.8 105-266 4-29.9 5-46.6 5-80s-1-50.1-5-80c-28.9-216.4-174.9-400.7-379.8-479.5C735.8 10.6 649-2.8 566 2.1zm90.9 63.3c30.3 3.7 48.6 7 75.1 13.6 78.1 19.7 149.4 56.3 214.5 110.4 15.5 12.9 51.2 48.6 64.1 64.1 66.3 79.8 106.6 169.5 121.4 269.9 6.8 46.2 6.8 107 0 153.2-15.1 102.8-57.4 194.9-126.3 275.4-14 16.2-43.5 45.1-61.7 60.3l-16.5 13.7-.6-46.7c-.3-25.8-.7-87.8-.8-137.8-.2-102.8-.7-115.9-4.6-128.5-11.9-37.6-43.4-67-83.5-78.3-7.2-2-10-2.1-70.5-2.4l-63-.3-54.8 52.5c-30.1 28.9-55.1 52.5-55.5 52.5-.4-.1-25.2-23.7-55.2-52.5L484.5 632l-63 .3c-60.5.3-63.3.4-70.5 2.4-37.2 10.4-66.5 35.9-80.7 70.3-6.9 16.7-6.5 7-7 167.3-.3 79.6-.8 144.7-1.3 144.7-1.3 0-23.1-19.1-36.6-32.3C140.7 902.6 84.9 793.4 68.1 677c-6.9-47.8-6.9-106.7 0-154 12.9-89.1 48.2-173.7 102.3-245.5 29.7-39.4 68.9-78.5 108.1-107.9C356.9 110.8 451.8 74 548 65.1c6.3-.6 13.3-1.3 15.5-1.5 2.2-.2 21.1-.3 42-.1 27.3.2 41.8.7 51.4 1.9zm-41.8 753.3c10.9 43.3 23.1 91.5 27 107 3.9 15.5 6.9 28.8 6.6 29.6-.7 1.8-53.5 42.9-54.6 42.5-.5-.2-12.8-10-27.4-21.8-16.7-13.5-26.6-22.2-26.7-23.3 0-1 5.1-21.9 11.4-46.5 6.3-24.6 18-70.6 26.1-102.2 8-31.6 15.1-59.2 15.6-61.4.6-2.1 1.3-3.6 1.5-3.3.3.3 9.5 36 20.5 79.4z"/><path d="M577.5 152.1c-78.7 6.4-146.3 52.4-181.1 123.2-23.4 47.8-28.7 103.2-14.8 154.7 15.7 58 56 108.4 109.4 136.8 91.6 48.7 205.7 26.6 272.2-52.8 33.4-39.7 51.8-90.3 51.8-142 0-34.2-7.3-65.5-22.5-96.5-35.1-71.8-102.2-117.1-182.9-123.5-14.2-1.1-17.5-1.1-32.1.1z"/></svg>