<?xml version="1.0" standalone="no"?>
<!DOCTYPE svg PUBLIC "-//W3C//DTD SVG 20010904//EN"
 "http://www.w3.org/TR/2001/REC-SVG-20010904/DTD/svg10.dtd">
<svg version="1.0" xmlns="http://www.w3.org/2000/svg"
 width="1200.000000pt" height="1200.000000pt" viewBox="0 0 1200.000000 1200.000000"
 preserveAspectRatio="xMidYMid meet">
<metadata>
Created by potrace 1.13, written by Peter Selinger 2001-2015
</metadata>
<g transform="translate(0.000000,1200.000000) scale(0.100000,-0.100000)"
fill="#000000" stroke="none">
<path d="M5660 11979 c-835 -50 -1630 -264 -2360 -635 -1775 -902 -2995 -2628
-3239 -4583 -37 -294 -45 -425 -45 -756 0 -348 9 -493 50 -805 303 -2269 1902
-4186 4084 -4895 430 -139 852 -225 1335 -272 249 -23 781 -23 1030 0 704 68
1310 225 1935 504 953 424 1818 1136 2434 2003 559 786 923 1708 1050 2660 40
299 50 466 50 800 0 334 -10 501 -50 800 -289 2164 -1749 4007 -3798 4795
-778 299 -1646 433 -2476 384z m909 -633 c303 -37 486 -70 751 -136 781 -197
1494 -563 2145 -1104 155 -129 512 -486 641 -641 663 -798 1066 -1695 1214
-2699 68 -462 68 -1070 0 -1532 -151 -1028 -574 -1949 -1263 -2754 -140 -162
-435 -451 -617 -603 l-165 -137 -6 467 c-3 258 -7 878 -8 1378 -2 1028 -7
1159 -46 1285 -119 376 -434 670 -835 783 -72 20 -100 21 -705 24 l-630 3
-548 -525 c-301 -289 -551 -525 -555 -525 -4 1 -252 237 -552 525 l-545 525
-630 -3 c-605 -3 -633 -4 -705 -24 -372 -104 -665 -359 -807 -703 -69 -167
-65 -70 -70 -1673 -3 -796 -8 -1447 -13 -1447 -13 0 -231 191 -366 323 -847
821 -1405 1913 -1573 3077 -69 478 -69 1067 0 1540 129 891 482 1737 1023
2455 297 394 689 785 1081 1079 784 588 1733 956 2695 1045 63 6 133 13 155
15 22 2 211 3 420 1 273 -2 418 -7 514 -19z m-418 -7533 c109 -433 231 -915
270 -1070 39 -155 69 -288 66 -296 -7 -18 -535 -429 -546 -425 -5 2 -128 100
-274 218 -167 135 -266 222 -267 233 0 10 51 219 114 465 63 246 180 706 261
1022 80 316 151 592 156 614 6 21 13 36 15 33 3 -3 95 -360 205 -794z"/>
<path d="M5775 10479 c-787 -64 -1463 -524 -1811 -1232 -234 -478 -287 -1032
-148 -1547 157 -580 560 -1084 1094 -1368 916 -487 2057 -266 2722 528 334
397 518 903 518 1420 0 342 -73 655 -225 965 -351 718 -1022 1171 -1829 1235
-142 11 -175 11 -321 -1z"/>
</g>
</svg>
