<?xml version="1.0" standalone="no"?>
<!DOCTYPE svg PUBLIC "-//W3C//DTD SVG 20010904//EN"
 "http://www.w3.org/TR/2001/REC-SVG-20010904/DTD/svg10.dtd">
<svg version="1.0" xmlns="http://www.w3.org/2000/svg"
 width="966.000000pt" height="967.000000pt" viewBox="0 0 966.000000 967.000000"
 preserveAspectRatio="xMidYMid meet">
<metadata>
Created by potrace 1.13, written by Peter Selinger 2001-2015
</metadata>
<g transform="translate(0.000000,967.000000) scale(0.100000,-0.100000)"
fill="#000000" stroke="none">
<path d="M4713 9636 c-57 -28 -103 -64 -215 -168 -225 -209 -266 -251 -273
-277 -6 -21 122 -152 1206 -1237 668 -668 1221 -1214 1229 -1214 8 0 35 18 59
40 24 22 46 40 50 40 14 0 317 312 337 347 45 80 56 137 53 256 -7 202 76 104
-1027 1209 -1113 1115 -1014 1031 -1226 1036 -120 3 -121 2 -193 -32z"/>
<path d="M2618 7543 c-754 -756 -1198 -1206 -1200 -1220 -2 -18 228 -256 1195
-1228 1024 -1029 1203 -1205 1227 -1205 23 0 80 53 357 334 l330 335 2015
-2015 c1109 -1108 2042 -2034 2073 -2059 176 -136 386 -178 604 -120 52 14 99
29 105 34 6 5 29 14 51 21 22 7 42 16 45 20 3 3 16 13 29 22 13 9 66 58 117
109 l94 92 0 414 0 413 -26 43 c-34 54 -433 459 -2875 2912 -938 943 -1159
1169 -1159 1188 0 6 149 160 330 342 205 206 330 338 330 350 0 13 -433 453
-1197 1217 -955 955 -1203 1198 -1223 1198 -20 0 -268 -243 -1222 -1197z"/>
<path d="M814 5797 c-288 -296 -306 -326 -312 -524 -4 -130 -4 -132 28 -197
18 -39 64 -103 108 -154 42 -48 468 -480 947 -960 818 -820 874 -874 940 -906
106 -52 139 -59 261 -54 149 6 194 28 336 162 59 56 152 143 207 195 67 62
101 101 101 115 0 15 -363 384 -1218 1239 -997 997 -1222 1217 -1243 1217 -21
0 -55 -29 -155 -133z"/>
<path d="M1207 1999 c-191 -25 -334 -120 -412 -275 -28 -55 -30 -67 -33 -191
-3 -100 0 -146 13 -188 18 -64 82 -162 134 -206 20 -17 64 -54 98 -82 34 -29
60 -56 59 -62 -2 -6 -138 -12 -372 -15 l-369 -5 -60 -29 c-86 -42 -172 -132
-221 -230 l-39 -80 0 -136 c0 -135 0 -137 34 -202 44 -88 165 -207 236 -233
28 -10 55 -22 61 -27 6 -4 33 -11 60 -14 27 -3 58 -10 69 -15 32 -15 4806 -6
4870 9 149 36 282 140 344 271 l36 76 0 140 c0 136 -1 142 -30 200 -44 87
-152 197 -234 237 l-66 33 -388 3 c-450 3 -437 -1 -296 94 47 31 116 90 155
130 90 95 119 169 119 303 -1 144 -49 257 -153 357 -73 71 -116 97 -207 124
-57 17 -149 19 -1700 20 -902 1 -1670 -2 -1708 -7z"/>
</g>
</svg>
