<svg version="1" xmlns="http://www.w3.org/2000/svg" width="1288" height="1289.333" viewBox="0 0 966.000000 967.000000"><path d="M471.3 3.4c-5.7 2.8-10.3 6.4-21.5 16.8-22.5 20.9-26.6 25.1-27.3 27.7-.6 2.1 12.2 15.2 120.6 123.7C609.9 238.4 665.2 293 666 293c.8 0 3.5-1.8 5.9-4 2.4-2.2 4.6-4 5-4 1.4 0 31.7-31.2 33.7-34.7 4.5-8 5.6-13.7 5.3-25.6-.7-20.2 7.6-10.4-102.7-120.9C501.9-7.7 511.8.7 490.6.2c-12-.3-12.1-.2-19.3 3.2zM261.8 212.7c-75.4 75.6-119.8 120.6-120 122-.2 1.8 22.8 25.6 119.5 122.8C363.7 560.4 381.6 578 384 578c2.3 0 8-5.3 35.7-33.4l33-33.5 201.5 201.5C765.1 823.4 858.4 916 861.5 918.5c17.6 13.6 38.6 17.8 60.4 12 5.2-1.4 9.9-2.9 10.5-3.4.6-.5 2.9-1.4 5.1-2.1 2.2-.7 4.2-1.6 4.5-2 .3-.3 1.6-1.3 2.9-2.2 1.3-.9 6.6-5.8 11.7-10.9l9.4-9.2V818l-2.6-4.3c-3.4-5.4-43.3-45.9-287.5-291.2C582.1 428.2 560 405.6 560 403.7c0-.6 14.9-16 33-34.2 20.5-20.6 33-33.8 33-35 0-1.3-43.3-45.3-119.7-121.7C410.8 117.3 386 93 384 93s-26.8 24.3-122.2 119.7zM81.4 387.3c-28.8 29.6-30.6 32.6-31.2 52.4-.4 13-.4 13.2 2.8 19.7 1.8 3.9 6.4 10.3 10.8 15.4 4.2 4.8 46.8 48 94.7 96 81.8 82 87.4 87.4 94 90.6 10.6 5.2 13.9 5.9 26.1 5.4 14.9-.6 19.4-2.8 33.6-16.2 5.9-5.6 15.2-14.3 20.7-19.5 6.7-6.2 10.1-10.1 10.1-11.5 0-1.5-36.3-38.4-121.8-123.9C121.5 396 99 374 96.9 374c-2.1 0-5.5 2.9-15.5 13.3zm39.3 379.8c-19.1 2.5-33.4 12-41.2 27.5-2.8 5.5-3 6.7-3.3 19.1-.3 10 0 14.6 1.3 18.8 1.8 6.4 8.2 16.2 13.4 20.6 2 1.7 6.4 5.4 9.8 8.2 3.4 2.9 6 5.6 5.9 6.2-.2.6-13.8 1.2-37.2 1.5l-36.9.5-6 2.9c-8.6 4.2-17.2 13.2-22.1 23l-3.9 8V917c0 13.5 0 13.7 3.4 20.2 4.4 8.8 16.5 20.7 23.6 23.3 2.8 1 5.5 2.2 6.1 2.7.6.4 3.3 1.1 6 1.4 2.7.3 5.8 1 6.9 1.5 3.2 1.5 480.6.6 487-.9 14.9-3.6 28.2-14 34.4-27.1l3.6-7.6v-14c0-13.6-.1-14.2-3-20-4.4-8.7-15.2-19.7-23.4-23.7l-6.6-3.3-38.8-.3c-45-.3-43.7.1-29.6-9.4 4.7-3.1 11.6-9 15.5-13 9-9.5 11.9-16.9 11.9-30.3-.1-14.4-4.9-25.7-15.3-35.7-7.3-7.1-11.6-9.7-20.7-12.4-5.7-1.7-14.9-1.9-170-2-90.2-.1-167 .2-170.8.7z"/></svg>