<svg version="1" xmlns="http://www.w3.org/2000/svg" width="682.667" height="682.667" viewBox="0 0 512.000000 512.000000"><path d="M143.5 29.9c-14.3 3.7-27.2 7.1-28.7 7.5-2.6.6-2.8 1-2.8 5.6 0 4.8-.2 5-3.9 6.9-13.7 7-12.7 22.2 2 29.6 2.5 1.3 6.2 2.6 8.2 3 3.1.6 4.6 1.9 9.5 8.3 5.1 6.8 10.6 11.4 19.6 16.7.9.5 1.9 2.7 2.3 4.7l.5 3.7-4.6 1.2c-2.5.6-4.6 1.6-4.6 2.2 0 .6 1 4.6 2.1 9l2.2 7.9 3.2-.5 3.2-.5.6 5.1c.3 2.9 2 9.7 3.7 15.2 9.1 28.3 26.6 55.1 50.4 77l9.7 8.9-.4 50-.3 50.1-3.6 10.6c-8 23.6-16.6 77.1-18.4 115.4-.8 14.8 0 18.6 4.9 24.1 8.5 9.8 23.6 11 32.9 2.6 7.4-6.7 9-13.5 10.3-44.7.8-18.4 2.8-34.6 6.6-53 3.3-16 9-35.1 10.4-34.8 1.4.2 6.8 17.5 9.9 31.3 3.9 17.5 6.4 38.3 7.6 61.9.6 11.8 1.5 23.5 2.1 26 4 18 24.6 25 38.3 13 6.9-6.1 8-10.2 7.3-26.7-1.8-38.4-10.3-90.4-19.6-120.6l-3.1-9.8v-95.3l11-10.3c18-16.9 29.7-32.6 40.1-53.7 11.3-23.1 15.2-40.5 11.1-49.7-3-6.8-8.7-10.3-16.6-10.3-10.6 0-16.6 5.8-20 19.2-5.3 21.3-19.5 45.4-36.7 62.4-6.2 6.2-9.7 11-18.3 25.5L261 242.4l3.5 2c3.6 2 6.5 6.8 6.5 10.6 0 6.5-5.8 12-12.8 12-7.8 0-13.6-8.1-11.2-15.5 1-3.1 5.3-7.8 8-8.7.7-.2-3.4-8.1-9.3-18-9.1-15.3-11.6-18.8-19.9-27-15.8-15.8-28.3-36.9-34.6-58.3-1.6-5.5-3.3-10.8-3.7-11.8-.4-.9-.3-1.7.1-1.7 3.3-.1 3.5-1.7 1.3-10.4-2.4-9.5-1.6-8.9-9.1-7.1-2.4.6-2.7.3-3.7-3.2-1.5-5.3-1.5-5.6 1.8-12.1 2.9-5.8 4.5-11.6 5.6-20.7.6-4.4 1.3-5.6 6-10.1 7-6.7 9.9-12.4 9.8-19.2-.1-9.8-6.2-14.6-17.6-13.9l-6.9.4-1.6-3.3c-.8-1.9-2-3.4-2.6-3.3-.6 0-12.8 3.1-27.1 6.8zm46.4 5.6c1.6.8 3.1 2.2 3.5 3 .9 2.5.7 8-.4 10.9-1 2.7-7.7 10.6-9 10.6-.4 0-1-2.4-1.4-5.4-.3-2.9-1.5-8.3-2.6-12-1.2-3.7-1.8-7.1-1.5-7.6.9-1.5 8.2-1.2 11.4.5zM113 55.4c0 1.4 4.2 16.4 5.6 20 .6 1.7.4 1.8-2.2 1.2-7.7-1.9-14.2-9.6-12.8-15.1 1.1-4.3 9.4-9.7 9.4-6.1z"/><path d="M249.2 126.5c-2.9.8-6.6 2.2-8.4 3.1-5.1 2.6-12.7 11-15.6 17.2-2.3 4.9-2.7 7-2.7 14.7 0 7.8.4 9.8 2.9 15.2 3.4 7.3 11.3 15.3 18.3 18.6 4 1.8 6.6 2.2 15.3 2.2 9.6 0 11-.2 15.8-2.8 7.2-3.8 13.8-10.6 17-17.5 2.4-5 2.7-7 2.7-15.7 0-12.1-1.8-16.7-9.5-24.9-9.1-9.6-23.3-13.6-35.8-10.1zm28.3 46.5c1 1.7-1.5 7.9-4.7 11.5-6 6.9-16.1 8.2-23.9 3.1-4.2-2.8-7.9-8.9-7.9-13.1V172h17.9c11.2 0 18.2.4 18.6 1zM242 210.4c.1 1.8 15.5 26.9 16.5 26.9 1.3 0 17-26.1 16.2-26.9-.3-.4-2-.1-3.8.5-4.4 1.5-17.4 1.4-23.7-.3-3.6-.9-5.2-1-5.2-.2z"/></svg>