<?xml version="1.0" standalone="no"?>
<!DOCTYPE svg PUBLIC "-//W3C//DTD SVG 20010904//EN"
 "http://www.w3.org/TR/2001/REC-SVG-20010904/DTD/svg10.dtd">
<svg version="1.0" xmlns="http://www.w3.org/2000/svg"
 width="512.000000pt" height="512.000000pt" viewBox="0 0 512.000000 512.000000"
 preserveAspectRatio="xMidYMid meet">
<metadata>
Created by potrace 1.13, written by Peter Selinger 2001-2015
</metadata>
<g transform="translate(0.000000,512.000000) scale(0.100000,-0.100000)"
fill="#000000" stroke="none">
<path d="M1435 4821 c-143 -37 -272 -71 -287 -75 -26 -6 -28 -10 -28 -56 0
-48 -2 -50 -39 -69 -137 -70 -127 -222 20 -296 25 -13 62 -26 82 -30 31 -6 46
-19 95 -83 51 -68 106 -114 196 -167 9 -5 19 -27 23 -47 l5 -37 -46 -12 c-25
-6 -46 -16 -46 -22 0 -6 10 -46 21 -90 l22 -79 32 5 32 5 6 -51 c3 -29 20 -97
37 -152 91 -283 266 -551 504 -770 l97 -89 -4 -500 -3 -501 -36 -106 c-80
-236 -166 -771 -184 -1154 -8 -148 0 -186 49 -241 85 -98 236 -110 329 -26 74
67 90 135 103 447 8 184 28 346 66 530 33 160 90 351 104 348 14 -2 68 -175
99 -313 39 -175 64 -383 76 -619 6 -118 15 -235 21 -260 40 -180 246 -250 383
-130 69 61 80 102 73 267 -18 384 -103 904 -196 1206 l-31 98 0 477 0 476 110
103 c180 169 297 326 401 537 113 231 152 405 111 497 -30 68 -87 103 -166
103 -106 0 -166 -58 -200 -192 -53 -213 -195 -454 -367 -624 -62 -62 -97 -110
-183 -255 l-106 -178 35 -20 c36 -20 65 -68 65 -106 0 -65 -58 -120 -128 -120
-78 0 -136 81 -112 155 10 31 53 78 80 87 7 2 -34 81 -93 180 -91 153 -116
188 -199 270 -158 158 -283 369 -346 583 -16 55 -33 108 -37 118 -4 9 -3 17 1
17 33 1 35 17 13 104 -24 95 -16 89 -91 71 -24 -6 -27 -3 -37 32 -15 53 -15
56 18 121 29 58 45 116 56 207 6 44 13 56 60 101 70 67 99 124 98 192 -1 98
-62 146 -176 139 l-69 -4 -16 33 c-8 19 -20 34 -26 33 -6 0 -128 -31 -271 -68z
m464 -56 c16 -8 31 -22 35 -30 9 -25 7 -80 -4 -109 -10 -27 -77 -106 -90 -106
-4 0 -10 24 -14 54 -3 29 -15 83 -26 120 -12 37 -18 71 -15 76 9 15 82 12 114
-5z m-769 -199 c0 -14 42 -164 56 -200 6 -17 4 -18 -22 -12 -77 19 -142 96
-128 151 11 43 94 97 94 61z"/>
<path d="M2492 3855 c-29 -8 -66 -22 -84 -31 -51 -26 -127 -110 -156 -172 -23
-49 -27 -70 -27 -147 0 -78 4 -98 29 -152 34 -73 113 -153 183 -186 40 -18 66
-22 153 -22 96 0 110 2 158 28 72 38 138 106 170 175 24 50 27 70 27 157 0
121 -18 167 -95 249 -91 96 -233 136 -358 101z m283 -465 c10 -17 -15 -79 -47
-115 -60 -69 -161 -82 -239 -31 -42 28 -79 89 -79 131 l0 25 179 0 c112 0 182
-4 186 -10z"/>
<path d="M2420 3016 c1 -18 155 -269 165 -269 13 0 170 261 162 269 -3 4 -20
1 -38 -5 -44 -15 -174 -14 -237 3 -36 9 -52 10 -52 2z"/>
</g>
</svg>
